<mxfile host="app.diagrams.net" agent="Mozilla/5.0 (Windows NT 10.0; Win64; x64) AppleWebKit/537.36 (KHTML, like Gecko) Chrome/133.0.0.0 Safari/537.36 Edg/133.0.0.0" version="26.0.15">
  <diagram name="Страница — 1" id="xJacs9hOVSkw8aqqM0o5">
    <mxGraphModel dx="1427" dy="1359" grid="0" gridSize="10" guides="1" tooltips="1" connect="1" arrows="1" fold="1" page="0" pageScale="1" pageWidth="827" pageHeight="1169" math="0" shadow="0">
      <root>
        <mxCell id="0" />
        <mxCell id="1" parent="0" />
        <mxCell id="OEGWRpslY2eceuaAg5e_-42" value="" style="rounded=0;whiteSpace=wrap;html=1;" vertex="1" parent="1">
          <mxGeometry x="412" y="-22" width="794" height="551" as="geometry" />
        </mxCell>
        <mxCell id="OEGWRpslY2eceuaAg5e_-5" style="edgeStyle=orthogonalEdgeStyle;rounded=0;orthogonalLoop=1;jettySize=auto;html=1;endArrow=block;endFill=0;" edge="1" parent="1" source="OEGWRpslY2eceuaAg5e_-2" target="OEGWRpslY2eceuaAg5e_-6">
          <mxGeometry relative="1" as="geometry">
            <mxPoint x="412" y="242.51854112413184" as="targetPoint" />
          </mxGeometry>
        </mxCell>
        <mxCell id="OEGWRpslY2eceuaAg5e_-2" value="Администратор" style="shape=umlActor;verticalLabelPosition=bottom;verticalAlign=top;html=1;outlineConnect=0;" vertex="1" parent="1">
          <mxGeometry x="339" y="353" width="30" height="60" as="geometry" />
        </mxCell>
        <mxCell id="OEGWRpslY2eceuaAg5e_-3" value="Управление пользователями" style="ellipse;whiteSpace=wrap;html=1;" vertex="1" parent="1">
          <mxGeometry x="551" y="323" width="120" height="80" as="geometry" />
        </mxCell>
        <mxCell id="OEGWRpslY2eceuaAg5e_-4" value="Контроль продаж" style="ellipse;whiteSpace=wrap;html=1;" vertex="1" parent="1">
          <mxGeometry x="551" y="413" width="120" height="80" as="geometry" />
        </mxCell>
        <mxCell id="OEGWRpslY2eceuaAg5e_-6" value="Продавец" style="shape=umlActor;verticalLabelPosition=bottom;verticalAlign=top;html=1;outlineConnect=0;" vertex="1" parent="1">
          <mxGeometry x="339" y="185" width="30" height="60" as="geometry" />
        </mxCell>
        <mxCell id="OEGWRpslY2eceuaAg5e_-8" value="Просмотр заказов" style="ellipse;whiteSpace=wrap;html=1;" vertex="1" parent="1">
          <mxGeometry x="464" y="20" width="120" height="80" as="geometry" />
        </mxCell>
        <mxCell id="OEGWRpslY2eceuaAg5e_-9" value="Изменение статуса заказов" style="ellipse;whiteSpace=wrap;html=1;" vertex="1" parent="1">
          <mxGeometry x="734" y="7" width="120" height="80" as="geometry" />
        </mxCell>
        <mxCell id="OEGWRpslY2eceuaAg5e_-11" value="Добавление новых товаров" style="ellipse;whiteSpace=wrap;html=1;" vertex="1" parent="1">
          <mxGeometry x="551" y="114" width="120" height="80" as="geometry" />
        </mxCell>
        <mxCell id="OEGWRpslY2eceuaAg5e_-13" value="Анализ продаж" style="ellipse;whiteSpace=wrap;html=1;" vertex="1" parent="1">
          <mxGeometry x="551" y="219" width="120" height="80" as="geometry" />
        </mxCell>
        <mxCell id="OEGWRpslY2eceuaAg5e_-15" value="" style="endArrow=none;html=1;rounded=0;exitX=0.5;exitY=0.5;exitDx=0;exitDy=0;exitPerimeter=0;entryX=0;entryY=0.5;entryDx=0;entryDy=0;" edge="1" parent="1" source="OEGWRpslY2eceuaAg5e_-2" target="OEGWRpslY2eceuaAg5e_-4">
          <mxGeometry width="50" height="50" relative="1" as="geometry">
            <mxPoint x="476" y="421" as="sourcePoint" />
            <mxPoint x="526" y="371" as="targetPoint" />
          </mxGeometry>
        </mxCell>
        <mxCell id="OEGWRpslY2eceuaAg5e_-16" value="" style="endArrow=none;html=1;rounded=0;exitX=0.5;exitY=0.5;exitDx=0;exitDy=0;exitPerimeter=0;entryX=0;entryY=0.5;entryDx=0;entryDy=0;" edge="1" parent="1" source="OEGWRpslY2eceuaAg5e_-2" target="OEGWRpslY2eceuaAg5e_-3">
          <mxGeometry width="50" height="50" relative="1" as="geometry">
            <mxPoint x="422" y="393" as="sourcePoint" />
            <mxPoint x="557" y="465" as="targetPoint" />
          </mxGeometry>
        </mxCell>
        <mxCell id="OEGWRpslY2eceuaAg5e_-17" value="" style="endArrow=none;html=1;rounded=0;exitX=0.5;exitY=0.5;exitDx=0;exitDy=0;exitPerimeter=0;entryX=0.021;entryY=0.634;entryDx=0;entryDy=0;entryPerimeter=0;" edge="1" parent="1" source="OEGWRpslY2eceuaAg5e_-6" target="OEGWRpslY2eceuaAg5e_-11">
          <mxGeometry width="50" height="50" relative="1" as="geometry">
            <mxPoint x="422" y="393" as="sourcePoint" />
            <mxPoint x="561" y="373" as="targetPoint" />
          </mxGeometry>
        </mxCell>
        <mxCell id="OEGWRpslY2eceuaAg5e_-18" value="" style="endArrow=none;html=1;rounded=0;exitX=0.5;exitY=0.5;exitDx=0;exitDy=0;exitPerimeter=0;entryX=0;entryY=0.5;entryDx=0;entryDy=0;" edge="1" parent="1" source="OEGWRpslY2eceuaAg5e_-6" target="OEGWRpslY2eceuaAg5e_-13">
          <mxGeometry width="50" height="50" relative="1" as="geometry">
            <mxPoint x="422" y="226" as="sourcePoint" />
            <mxPoint x="564" y="175" as="targetPoint" />
          </mxGeometry>
        </mxCell>
        <mxCell id="OEGWRpslY2eceuaAg5e_-19" value="" style="endArrow=none;html=1;rounded=0;exitX=0.5;exitY=0.5;exitDx=0;exitDy=0;exitPerimeter=0;entryX=0;entryY=1;entryDx=0;entryDy=0;" edge="1" parent="1" source="OEGWRpslY2eceuaAg5e_-6" target="OEGWRpslY2eceuaAg5e_-8">
          <mxGeometry width="50" height="50" relative="1" as="geometry">
            <mxPoint x="422" y="226" as="sourcePoint" />
            <mxPoint x="561" y="269" as="targetPoint" />
          </mxGeometry>
        </mxCell>
        <mxCell id="OEGWRpslY2eceuaAg5e_-22" value="" style="endArrow=none;dashed=1;html=1;rounded=0;exitX=1;exitY=0.5;exitDx=0;exitDy=0;entryX=0.025;entryY=0.64;entryDx=0;entryDy=0;entryPerimeter=0;startArrow=open;startFill=0;" edge="1" parent="1" source="OEGWRpslY2eceuaAg5e_-8" target="OEGWRpslY2eceuaAg5e_-9">
          <mxGeometry width="50" height="50" relative="1" as="geometry">
            <mxPoint x="476" y="355" as="sourcePoint" />
            <mxPoint x="526" y="305" as="targetPoint" />
          </mxGeometry>
        </mxCell>
        <mxCell id="OEGWRpslY2eceuaAg5e_-23" value="&amp;lt;&amp;lt;расширить&amp;gt;&amp;gt;" style="edgeLabel;html=1;align=center;verticalAlign=middle;resizable=0;points=[];" vertex="1" connectable="0" parent="OEGWRpslY2eceuaAg5e_-22">
          <mxGeometry x="-0.0986" y="4" relative="1" as="geometry">
            <mxPoint as="offset" />
          </mxGeometry>
        </mxCell>
        <mxCell id="OEGWRpslY2eceuaAg5e_-24" value="Клиент" style="shape=umlActor;verticalLabelPosition=bottom;verticalAlign=top;html=1;outlineConnect=0;" vertex="1" parent="1">
          <mxGeometry x="1280" y="269" width="30" height="60" as="geometry" />
        </mxCell>
        <mxCell id="OEGWRpslY2eceuaAg5e_-25" value="Регистрация/Вход" style="ellipse;whiteSpace=wrap;html=1;" vertex="1" parent="1">
          <mxGeometry x="964" y="83" width="120" height="80" as="geometry" />
        </mxCell>
        <mxCell id="OEGWRpslY2eceuaAg5e_-26" value="Поиск товаров" style="ellipse;whiteSpace=wrap;html=1;" vertex="1" parent="1">
          <mxGeometry x="964" y="299" width="120" height="80" as="geometry" />
        </mxCell>
        <mxCell id="OEGWRpslY2eceuaAg5e_-27" value="Оформление заказа" style="ellipse;whiteSpace=wrap;html=1;" vertex="1" parent="1">
          <mxGeometry x="964" y="413" width="120" height="80" as="geometry" />
        </mxCell>
        <mxCell id="OEGWRpslY2eceuaAg5e_-28" value="Отслеживание заказа" style="ellipse;whiteSpace=wrap;html=1;" vertex="1" parent="1">
          <mxGeometry x="706" y="413" width="120" height="80" as="geometry" />
        </mxCell>
        <mxCell id="OEGWRpslY2eceuaAg5e_-29" value="" style="endArrow=none;dashed=1;html=1;rounded=0;exitX=0;exitY=0.5;exitDx=0;exitDy=0;entryX=1;entryY=0.5;entryDx=0;entryDy=0;startArrow=open;startFill=0;" edge="1" parent="1" source="OEGWRpslY2eceuaAg5e_-27" target="OEGWRpslY2eceuaAg5e_-28">
          <mxGeometry width="50" height="50" relative="1" as="geometry">
            <mxPoint x="594" y="70" as="sourcePoint" />
            <mxPoint x="709" y="37" as="targetPoint" />
          </mxGeometry>
        </mxCell>
        <mxCell id="OEGWRpslY2eceuaAg5e_-30" value="&amp;lt;&amp;lt;расширить&amp;gt;&amp;gt;" style="edgeLabel;html=1;align=center;verticalAlign=middle;resizable=0;points=[];" vertex="1" connectable="0" parent="OEGWRpslY2eceuaAg5e_-29">
          <mxGeometry x="-0.0986" y="4" relative="1" as="geometry">
            <mxPoint as="offset" />
          </mxGeometry>
        </mxCell>
        <mxCell id="OEGWRpslY2eceuaAg5e_-31" value="Оставление отзывов" style="ellipse;whiteSpace=wrap;html=1;" vertex="1" parent="1">
          <mxGeometry x="964" y="189" width="120" height="80" as="geometry" />
        </mxCell>
        <mxCell id="OEGWRpslY2eceuaAg5e_-32" value="Оплата заказа онлайн" style="ellipse;whiteSpace=wrap;html=1;" vertex="1" parent="1">
          <mxGeometry x="706" y="299" width="120" height="80" as="geometry" />
        </mxCell>
        <mxCell id="OEGWRpslY2eceuaAg5e_-34" value="" style="endArrow=none;dashed=1;html=1;rounded=0;exitX=0;exitY=0.5;exitDx=0;exitDy=0;entryX=1;entryY=0.5;entryDx=0;entryDy=0;startArrow=open;startFill=0;" edge="1" parent="1" source="OEGWRpslY2eceuaAg5e_-27" target="OEGWRpslY2eceuaAg5e_-32">
          <mxGeometry width="50" height="50" relative="1" as="geometry">
            <mxPoint x="974" y="463" as="sourcePoint" />
            <mxPoint x="836" y="463" as="targetPoint" />
          </mxGeometry>
        </mxCell>
        <mxCell id="OEGWRpslY2eceuaAg5e_-35" value="&amp;lt;&amp;lt;расширить&amp;gt;&amp;gt;" style="edgeLabel;html=1;align=center;verticalAlign=middle;resizable=0;points=[];" vertex="1" connectable="0" parent="OEGWRpslY2eceuaAg5e_-34">
          <mxGeometry x="-0.0986" y="4" relative="1" as="geometry">
            <mxPoint as="offset" />
          </mxGeometry>
        </mxCell>
        <mxCell id="OEGWRpslY2eceuaAg5e_-36" value="" style="endArrow=none;html=1;rounded=0;entryX=1;entryY=0.5;entryDx=0;entryDy=0;" edge="1" parent="1" source="OEGWRpslY2eceuaAg5e_-24" target="OEGWRpslY2eceuaAg5e_-26">
          <mxGeometry width="50" height="50" relative="1" as="geometry">
            <mxPoint x="422" y="226" as="sourcePoint" />
            <mxPoint x="561" y="269" as="targetPoint" />
          </mxGeometry>
        </mxCell>
        <mxCell id="OEGWRpslY2eceuaAg5e_-37" value="" style="endArrow=none;html=1;rounded=0;entryX=1;entryY=0.5;entryDx=0;entryDy=0;" edge="1" parent="1" source="OEGWRpslY2eceuaAg5e_-24" target="OEGWRpslY2eceuaAg5e_-27">
          <mxGeometry width="50" height="50" relative="1" as="geometry">
            <mxPoint x="1174" y="331" as="sourcePoint" />
            <mxPoint x="1094" y="349" as="targetPoint" />
          </mxGeometry>
        </mxCell>
        <mxCell id="OEGWRpslY2eceuaAg5e_-38" value="" style="endArrow=none;html=1;rounded=0;entryX=1;entryY=0.5;entryDx=0;entryDy=0;" edge="1" parent="1" source="OEGWRpslY2eceuaAg5e_-24" target="OEGWRpslY2eceuaAg5e_-31">
          <mxGeometry width="50" height="50" relative="1" as="geometry">
            <mxPoint x="1174" y="331" as="sourcePoint" />
            <mxPoint x="1094" y="349" as="targetPoint" />
          </mxGeometry>
        </mxCell>
        <mxCell id="OEGWRpslY2eceuaAg5e_-39" value="" style="endArrow=none;html=1;rounded=0;entryX=1;entryY=0.5;entryDx=0;entryDy=0;" edge="1" parent="1" source="OEGWRpslY2eceuaAg5e_-24" target="OEGWRpslY2eceuaAg5e_-25">
          <mxGeometry width="50" height="50" relative="1" as="geometry">
            <mxPoint x="1174" y="314" as="sourcePoint" />
            <mxPoint x="1094" y="239" as="targetPoint" />
          </mxGeometry>
        </mxCell>
      </root>
    </mxGraphModel>
  </diagram>
</mxfile>
